<?xml version="1.0" encoding="UTF-8" standalone="no"?>
<!-- Created with Inkscape (http://www.inkscape.org/) -->

<svg
   width="319.38541mm"
   height="107.86147mm"
   viewBox="0 0 319.38541 107.86147"
   version="1.1"
   id="svg5"
   inkscape:version="1.2 (dc2aedaf03, 2022-05-15)"
   sodipodi:docname="logo.svg"
   xmlns:inkscape="http://www.inkscape.org/namespaces/inkscape"
   xmlns:sodipodi="http://sodipodi.sourceforge.net/DTD/sodipodi-0.dtd"
   xmlns="http://www.w3.org/2000/svg"
   xmlns:svg="http://www.w3.org/2000/svg">
  <sodipodi:namedview
     id="namedview7"
     pagecolor="#ffffff"
     bordercolor="#000000"
     borderopacity="0.25"
     inkscape:showpageshadow="2"
     inkscape:pageopacity="0.0"
     inkscape:pagecheckerboard="0"
     inkscape:deskcolor="#d1d1d1"
     inkscape:document-units="mm"
     showgrid="false"
     inkscape:zoom="1.5625561"
     inkscape:cx="558.05996"
     inkscape:cy="232.95163"
     inkscape:window-width="2560"
     inkscape:window-height="1057"
     inkscape:window-x="-8"
     inkscape:window-y="-8"
     inkscape:window-maximized="1"
     inkscape:current-layer="text77" />
  <defs
     id="defs2">
    <filter
       id="fx0"
       x="-21"
       y="-29.700001"
       width="252.00002"
       height="356.40002"
       filterUnits="userSpaceOnUse"
       primitiveUnits="userSpaceOnUse">
      <feComponentTransfer
         color-interpolation-filters="sRGB"
         id="feComponentTransfer17">
        <feFuncR
           type="discrete"
           tableValues="0 0"
           id="feFuncR9" />
        <feFuncG
           type="discrete"
           tableValues="0 0"
           id="feFuncG11" />
        <feFuncB
           type="discrete"
           tableValues="0 0"
           id="feFuncB13" />
        <feFuncA
           type="linear"
           slope="0.4"
           intercept="0"
           id="feFuncA15" />
      </feComponentTransfer>
      <feGaussianBlur
         stdDeviation="2.84343 2.84343"
         id="feGaussianBlur19" />
    </filter>
    <filter
       id="fx1"
       x="-21"
       y="-29.700001"
       width="252.00002"
       height="356.40002"
       filterUnits="userSpaceOnUse"
       primitiveUnits="userSpaceOnUse">
      <feComponentTransfer
         color-interpolation-filters="sRGB"
         id="feComponentTransfer30">
        <feFuncR
           type="discrete"
           tableValues="0 0"
           id="feFuncR22" />
        <feFuncG
           type="discrete"
           tableValues="0 0"
           id="feFuncG24" />
        <feFuncB
           type="discrete"
           tableValues="0 0"
           id="feFuncB26" />
        <feFuncA
           type="linear"
           slope="0.4"
           intercept="0"
           id="feFuncA28" />
      </feComponentTransfer>
      <feGaussianBlur
         stdDeviation="2.84343 2.84343"
         id="feGaussianBlur32" />
    </filter>
    <filter
       id="fx2"
       x="-21"
       y="-29.700001"
       width="252.00002"
       height="356.40002"
       filterUnits="userSpaceOnUse"
       primitiveUnits="userSpaceOnUse">
      <feComponentTransfer
         color-interpolation-filters="sRGB"
         id="feComponentTransfer43">
        <feFuncR
           type="discrete"
           tableValues="0 0"
           id="feFuncR35" />
        <feFuncG
           type="discrete"
           tableValues="0 0"
           id="feFuncG37" />
        <feFuncB
           type="discrete"
           tableValues="0 0"
           id="feFuncB39" />
        <feFuncA
           type="linear"
           slope="0.4"
           intercept="0"
           id="feFuncA41" />
      </feComponentTransfer>
      <feGaussianBlur
         stdDeviation="2.84343 2.84343"
         id="feGaussianBlur45" />
    </filter>
    <clipPath
       id="clip3">
      <rect
         x="-161"
         y="-97"
         width="1586"
         height="688"
         id="rect48" />
    </clipPath>
    <clipPath
       id="clip4">
      <rect
         x="190"
         y="51"
         width="601"
         height="435"
         id="rect51" />
    </clipPath>
    <clipPath
       id="clip5">
      <rect
         x="0"
         y="0"
         width="977"
         height="690"
         id="rect54" />
    </clipPath>
    <clipPath
       id="clip6">
      <rect
         x="190"
         y="56"
         width="486"
         height="384"
         id="rect57" />
    </clipPath>
    <clipPath
       id="clip7">
      <rect
         x="0"
         y="0"
         width="866"
         height="690"
         id="rect60" />
    </clipPath>
    <clipPath
       id="clip8">
      <rect
         x="190"
         y="56"
         width="169"
         height="370"
         id="rect63" />
    </clipPath>
    <clipPath
       id="clip9">
      <rect
         x="0"
         y="0"
         width="548"
         height="690"
         id="rect66" />
    </clipPath>
  </defs>
  <g
     inkscape:label="Livello 1"
     inkscape:groupmode="layer"
     id="layer1"
     transform="translate(50.120867,-72.810718)">
    <g
       clip-path="url(#clip3)"
       transform="matrix(0.26458333,0,0,0.26458333,-55.445024,82.620966)"
       id="g95">
      <g
         clip-path="url(#clip4)"
         filter="url(#fx0)"
         transform="translate(-163.27995,-102.91013)"
         id="g75">
        <g
           clip-path="url(#clip5)"
           id="g73">
          <path
             d="m 45.7793,-349.218 h 1.8838 c 1.5511,0 3.2126,1.266 4.9844,3.797 v 140.86 c 1.0384,1.142 1.5576,2.559 1.5576,4.251 v 1.247 c 0,1.724 -0.5192,3.158 -1.5576,4.3 v -0.718 h -2.8257 c 72.8252,10.868 111.8102,17.199 116.9552,18.993 2.314,2.489 3.471,4.814 3.471,6.975 -1.41,20.798 -5.253,31.197 -11.527,31.197 h -0.779 c -1.466,0 -29.819,-4.206 -85.0577,-12.617 h -2.1685 c -1.6501,0 -2.7461,1.777 -3.288,5.33 -2.2732,14.043 -3.4097,22.027 -3.4097,23.953 v 0.779 c 0,2.221 2.5554,3.612 7.6664,4.171 43.3645,6.195 68.2085,10.195 74.5315,12.001 3.145,1.923 4.717,4.446 4.717,7.5694 -1.079,19.1668 -4.921,28.7502 -11.526,28.7502 h -1.733 L 61.0367,-80.2173 c -3.3083,0 -4.9625,2.9141 -4.9625,8.7421 -2.596,14.3269 -3.894,23.4065 -3.894,27.2389 v 0.7934 c 0.4429,2.3786 4.1431,3.5679 11.1004,3.5679 2.5766,0.5371 28.9157,4.6842 79.0174,12.4415 4.407,2.2033 6.61,4.8578 6.61,7.9633 v 0.9175 c -1.643,19.94888 -4.516,29.9233 -8.618,29.9233 -0.934,0.5192 -2.222,0.7788 -3.862,0.7788 C 54.1353,-0.0227151 10.1075,-6.97358 4.34429,-8.70319 1.4481,-11.4388 0,-14.3431 0,-17.4161 L 26.8738,-191.319 c 2.3802,-4.125 5.364,-6.187 8.9514,-6.187 1.6874,0 3.7123,0.416 6.0747,1.246 v 4.206 c -1.8919,0 -3.086,-2.634 -3.5825,-7.903 0.8891,-4.596 1.8237,-6.895 2.8037,-6.895 0,-2.649 -0.7034,-5.609 -2.1101,-8.878 0.3018,1.038 -1.0197,1.558 -3.9646,1.558 h -3.2248 c -3.5614,-1.959 -5.3421,-4.451 -5.3421,-7.477 v -0.779 c 0,-3.699 2.3624,-6.139 7.0872,-7.321 h 1.1682 c 4.139,0 6.572,1.662 7.2989,4.985 1.1325,0 2.6852,2.284 4.6582,6.853 h -4.7921 v -126.634 c 0,-1.564 1.2931,-3.122 3.8794,-4.673 z m -1.8545,171.745 c 0.4332,2.221 1.6793,3.331 3.7383,3.331 1.4002,0 2.3348,-1.202 2.8037,-3.606 0,-0.987 -0.4527,-1.81 -1.3581,-2.468 h 3.5388 c 0,1.869 -1.6615,2.803 -4.9844,2.803 h -1.0903 c -2.0655,0 -3.2686,-0.934 -3.6093,-2.803 0.6409,0.611 0.9613,1.526 0.9613,2.743 z M 264.413,-351.398 h 1.887 c 1.551,0 3.212,1.265 4.984,3.796 v 187.744 c 1.038,1.143 1.558,2.612 1.558,4.408 v 1.246 c 0,1.725 -0.52,3.157 -1.558,4.298 v -3.008 c 7.391,2.085 13.909,7.966 19.555,17.642 2.932,9.323 9.035,38.1586 18.307,86.5064 4.354,12.8422 6.53,19.8556 6.53,21.04 0,4.9568 -7.655,8.3633 -22.965,10.2194 -2.69,1.1829 -6.198,1.7743 -10.524,1.7743 -2.938,0 -6.483,-2.0249 -10.635,-6.0747 h -0.134 C 256.153,-7.26888 237.469,0 215.366,0 h -2.337 c -9.769,0 -19.133,-3.91919 -28.091,-11.7576 -8.375,-10.608 -12.563,-21.1746 -12.563,-31.6999 0,-22.3242 15.022,-37.7471 45.067,-46.2686 10.33,-3.477 19.391,-6.9135 27.182,-10.3099 4.586,-3.227 6.878,-6.07 6.878,-8.53 0,-7.129 -2.911,-11.942 -8.735,-14.437 -2.063,-0.448 -3.513,-0.672 -4.349,-0.672 h -3.582 c -7.668,0 -14.106,1.684 -19.315,5.053 -3.53,3.391 -5.971,8.777 -7.32,16.158 0,4.0624 -11.324,7.7917 -33.971,11.1876 -4.837,0 -7.636,-2.815 -8.397,-8.4452 0,-20.9384 10.734,-36.2914 32.202,-46.0594 17.502,-7.484 34.494,-11.227 50.975,-11.227 1.579,0 4.279,0.26 8.1,0.779 l -0.312,3.018 v -2.259 c 0.876,-4.556 1.811,-6.834 2.804,-6.834 0,-2.589 -1.151,-5.601 -3.454,-9.034 -0.071,1.039 -1.101,1.558 -3.088,1.558 h -1.246 c -3.597,0 -6.141,-2.445 -7.633,-7.333 0.927,-5.703 3.627,-8.555 8.1,-8.555 h 0.312 c 3.777,0 6.542,2.255 8.296,6.763 2.429,1.584 3.979,3.379 4.649,5.386 h -5.157 v -173.207 c 0,-1.648 1.344,-3.206 4.032,-4.672 z m -2.007,218.533 c 0,2.15 1.27,3.396 3.811,3.739 2.028,-0.427 3.042,-1.621 3.042,-3.583 -0.561,-2.077 0.114,-3.115 2.025,-3.115 v -1.091 c 0,1.518 -1.338,3.127 -4.013,4.829 h -2.062 c -1.784,0 -3.394,-1.315 -4.828,-3.945 v 0.207 h 3.714 c -1.126,0.649 -1.689,1.635 -1.689,2.959 z M 216.3,-50.7783 v 2.4605 c 1.008,9.1591 5.836,13.7387 14.486,13.7387 0,0.3115 0.156,0.4673 0.467,0.4673 h 4.05 c 7.167,0 14.281,-3.2524 21.344,-9.757 3.008,-5.1986 4.513,-9.942 4.513,-14.2303 0,-8.1029 -1.049,-13.8896 -3.147,-17.3602 -0.116,-0.0567 -0.094,-0.0851 0.065,-0.0851 -17.02,5.9773 -28.643,10.7378 -34.868,14.2814 -4.607,4.2526 -6.91,7.7475 -6.91,10.4847 z M 373.345,-351.554 h 2.198 c 1.601,0 3.263,1.352 4.984,4.057 v 176.315 h -6.074 c 0,-2.012 5.515,-5.283 16.547,-9.813 5.894,1.016 8.842,3.612 8.842,7.788 v 1.246 c 0,4.366 -2.789,7.014 -8.368,7.944 -3.462,0 -5.65,-1.454 -6.563,-4.361 -2.923,2.704 -4.384,7.118 -4.384,13.239 v -0.284 c 1.662,1.661 2.493,3.469 2.493,5.424 v 1.247 c 0,1.757 -0.572,1.913 -1.714,0.467 h -0.156 c 30.44,0 50.58,9.948 60.419,29.843 2.607,5.925 3.911,10.36 3.911,13.303 v 0.779 c 0,5.8148 -3.219,8.7223 -9.657,8.7223 h -17.757 c -0.836,0 -2.239,0.1558 -4.211,0.4673 -6.204,0 -11.669,-4.8376 -16.393,-14.5126 -5.043,-3.824 -10.792,-5.736 -17.246,-5.736 -12.138,0 -19.126,2.636 -20.962,7.909 l -0.378,2.517 v 0.633 c 0,7.4892 12.262,13.2005 36.785,17.1334 15.375,3.0634 27.851,7.3622 37.429,12.8966 11.998,8.455 17.997,19.6804 17.997,33.6762 0,12.4593 -4.606,24.0725 -13.819,34.83951 -13.721,12.18348 -33.881,18.27519 -60.479,18.27519 -14.15,0 -28.791,-3.73824 -43.922,-11.21481 -10.281,-5.42083 -17.895,-15.94039 -22.844,-31.55879 -0.349,-2.2034 -0.523,-4.0409 -0.523,-5.5125 v -0.9346 c 0,-4.7231 3.045,-7.4749 9.134,-8.2553 h 24.199 c 5.13,0 8.878,3.0592 11.244,9.1777 1.416,4.6907 4.482,8.3812 9.197,11.0713 5.814,2.9075 12.032,4.3613 18.655,4.3613 5.075,0 10.518,-1.5933 16.328,-4.7799 3.653,-2.9043 5.479,-6.6069 5.479,-11.1078 v -0.4673 c 0,-7.9665 -13.913,-14.2489 -41.739,-18.8471 -20.417,-5.197 -32.518,-10.2332 -36.305,-15.1089 -9.341,-8.3333 -14.011,-18.0522 -14.011,-29.1567 1.406,-11.2535 4.823,-19.8105 10.251,-25.6715 2.896,-7.942 12.036,-14.38 27.419,-19.314 9.318,-2.285 15.556,-3.427 18.715,-3.427 -1.142,1.694 -1.713,1.538 -1.713,-0.467 v -1.315 c 0.826,-4.627 1.812,-6.941 2.959,-6.941 v -189.718 c 0,-1.752 1.345,-3.361 4.033,-4.828 z m -2.319,221.804 c 0,2.377 1.466,3.779 4.398,4.206 2.26,-0.513 3.39,-1.918 3.39,-4.215 -0.573,-2.174 -0.002,-3.262 1.713,-3.262 v -1.09 c 0,1.621 -1.337,3.283 -4.013,4.985 h -2.373 c -1.645,0 -3.255,-1.349 -4.829,-4.045 v 0.15 h 3.532 c -1.212,0.674 -1.818,1.764 -1.818,3.271 z m 180.577,-221.804 h 2.195 c 1.632,0 3.242,1.322 4.829,3.967 v 184.349 h -6.075 c 0,-0.437 1.755,-2.136 5.264,-5.097 0.951,-4.079 3.454,-6.118 7.508,-6.118 h 0.312 c 4.463,0 7.111,2.775 7.944,8.326 -1.366,4.729 -3.911,7.094 -7.633,7.094 h -1.09 c -1.791,0 -2.731,-0.519 -2.821,-1.557 -1.754,2.954 -2.631,6.381 -2.631,10.28 v -0.329 c 1.454,1.556 2.181,3.224 2.181,5.002 v 1.09 c 0,3.106 -0.986,5.074 -2.959,5.904 v -4.035 h -3.408 c 7.479,-2.284 12.353,-3.426 14.622,-3.426 3.872,0 6.251,2.398 7.139,7.196 -5.432,81.3727 -9.292,134.06154 -11.578,158.0667 -1.846,7.926 -3.876,13.5172 -6.089,16.7736 -6.505,8.8914 -15.537,15.0756 -27.098,18.5527 -10.799,3.1363 -17.883,4.7045 -21.251,4.7045 -6.036,0 -10.553,-8.4777 -13.552,-25.433 0,-5.8849 4.601,-9.2751 13.802,-10.1708 6.356,-1.702 10.532,-4.1341 12.529,-7.2964 1.138,-2.7096 1.706,-5.803 1.706,-9.28002 0,-2.86861 -7.81,-14.15485 -23.43,-33.85868 -27.896,-37.0551 -46.513,-62.1092 -55.852,-75.1626 v -3.439 c 0,-4.374 6.087,-7.802 18.263,-10.285 7.671,-2.593 12.331,-3.889 13.979,-3.889 h 1.87 c 4.077,0 8.288,3.875 12.633,11.624 1.693,2.255 14.722,21.0048 39.089,56.2492 0.818,1.1682 1.334,1.7523 1.548,1.7523 h 0.779 c -0.312,0 -0.467,-4.4814 -0.467,-13.4442 1.083,-48.1503 1.966,-72.2243 2.647,-72.2243 0,-1.321 3.843,-2.916 11.527,-4.785 v 0.771 c -1.35,-1.246 -2.025,-2.868 -2.025,-4.865 v -0.779 c 0,-1.84 0.675,-3.486 2.025,-4.94 v -196.615 c 0,-1.53 1.189,-3.088 3.568,-4.673 z m -1.387,227.412 c 0,1.85 1.188,2.94 3.565,3.271 1.777,-0.342 2.665,-1.391 2.665,-3.145 -0.544,-1.849 0.183,-2.774 2.181,-2.774 v -1.246 c 0,1.546 -1.308,3.104 -3.924,4.673 h -2.151 c -1.493,0 -2.999,-1.266 -4.517,-3.797 v 0.37 h 3.616 c -0.957,0.558 -1.435,1.441 -1.435,2.648 z"
             fill="#ff0066"
             transform="translate(201.308,414)"
             id="path71" />
        </g>
      </g>
      <g
         aria-label="Easy"
         transform="translate(36.4697,313)"
         id="text77"
         style="font-weight:700;font-size:319px;font-family:'Hanging Letters', 'Hanging Letters_MSFontService', sans-serif;fill:#ff0066">
        <path
           d="m 42.177566,-347.89743 h 1.090332 q 0.623046,0 1.713378,1.55761 v 141.12012 q 1.557618,1.71338 1.557618,3.11523 v 1.2461 q 0,1.40185 -1.557618,3.11523 v 3.58252 H 45.2928 q 108.56592,16.19922 115.26368,18.53565 2.0249,2.18066 2.0249,4.82861 -1.86914,27.56982 -8.25537,27.56982 h -0.77881 q -1.71338,0 -84.578619,-12.6167 h -2.647949 q -5.295899,0 -6.386231,7.16504 -3.582519,22.11817 -3.582519,25.2334 v 0.77881 q 0,6.07471 9.96875,7.16504 65.419928,9.3457 74.142578,11.83789 2.80371,1.71338 2.80371,5.451657 -1.40185,24.921875 -8.25537,24.921875 h -1.24609 l -76.634769,-11.83789 q -8.722657,0 -8.722657,11.83789 -3.894043,21.495118 -3.894043,27.258301 v 0.778809 q 1.246094,6.697754 14.174317,6.697754 3.738281,0.778808 78.192382,12.305176 4.36133,2.180664 4.36133,4.984375 v 1.246093 q -2.18066,26.4794919 -6.23047,26.4794919 -1.40185,0.778809 -2.49218,0.778809 Q 9.311843,-10.98484 1.5237569,-13.321266 -1.279954,-15.969215 -1.279954,-18.772926 L 25.511062,-192.13572 q 2.336425,-4.0498 5.918945,-4.0498 2.492187,0 9.189941,1.24609 v -2.0249 q -3.115234,0 -3.582519,-4.67285 0.778808,-3.89404 2.803711,-3.89404 0,-8.41114 -6.386231,-15.10889 -0.623047,1.55762 -2.803711,1.55762 h -2.336425 q -3.115235,-1.71338 -3.115235,-4.36133 v -0.77881 q 0,-3.11523 4.361328,-4.20557 h 0.778809 q 3.582519,0 4.672851,4.98438 2.180665,0 5.140137,6.85351 h 0.467285 v -129.74951 q 0,-0.62304 1.557618,-1.55761 z m -5.918946,168.68994 q 1.246094,6.38623 7.009278,6.38623 4.672851,0 5.918945,-6.38623 0,-3.42676 -3.426758,-5.91895 h -0.778809 q 0,2.80371 -1.713378,2.80371 h -1.090332 q -0.934571,0 -2.024903,-2.80371 -3.894043,2.33643 -3.894043,5.91895 z"
           id="path606" />
        <path
           d="m 260.86702,-350.0781 h 1.09033 q 0.62305,0 1.71338,1.55762 v 188.00439 q 1.55762,1.71338 1.55762,3.271 v 1.24609 q 0,1.40186 -1.55762,3.11524 v 0.46728 q 12.14942,3.42676 19.78174,16.51074 4.36133,13.8628 18.22412,86.136232 6.38623,18.847168 6.38623,20.249023 0,4.672852 -20.56054,7.16504 -3.89405,1.713378 -9.65723,1.713378 -3.11523,0 -9.3457,-6.074707 h -2.80371 q -22.89698,21.8066409 -54.67237,21.8066409 h -2.33642 q -13.39551,0 -25.85645,-10.9033199 -11.68213,-14.797364 -11.68213,-29.438965 0,-31.152344 42.83448,-43.301758 15.73193,-5.295898 27.88134,-10.591797 8.41114,-5.918947 8.41114,-11.214837 0,-12.77246 -10.90332,-17.44532 -3.58252,-0.7788 -5.2959,-0.7788 h -3.58252 q -12.6167,0 -22.58545,7.63232 -4.98438,3.89404 -7.3208,16.6665 0,3.42676 -31.15235,8.09961 -4.0498,0 -4.82861,-5.76318 0,-28.97168 31.15234,-43.146 24.76612,-10.59179 48.90918,-10.59179 2.64795,0 11.21485,0.7788 l -0.31153,-0.7788 v -1.2461 q 0.77881,-4.0498 2.80372,-4.0498 0,-8.25537 -6.542,-15.26465 -1.55761,1.55762 -3.11523,1.55762 h -1.2461 q -3.11523,0 -4.51709,-4.36133 0.93458,-5.2959 4.98438,-5.2959 h 0.31152 q 3.42676,0 5.60743,5.60742 3.58251,2.33643 4.98437,6.54199 h 0.31152 v -176.32226 q 0,-0.62305 1.71338,-1.55762 z m -6.0747,215.41846 q 0,5.91894 7.16503,6.85351 6.07471,-1.24609 6.07471,-7.16504 -1.55762,-5.76318 -4.36133,-5.76318 v 2.0249 q 0,0.62305 -1.71338,1.71338 h -1.09033 q -0.77881,0 -1.71338,-1.71338 v -2.0249 h -0.31152 q -4.0498,2.33643 -4.0498,6.07471 z m -46.10547,82.086421 v 2.336426 q 1.86914,16.978027 14.48584,16.978027 0,0.467285 3.73828,0.467285 h 4.0498 q 11.99365,0 23.83155,-10.90332 5.14013,-8.878418 5.14013,-16.199219 0,-13.083984 -4.0498,-19.781738 -1.55762,-0.778809 -2.80371,-0.778809 -26.16797,9.189942 -36.29248,14.953125 -8.09961,7.476563 -8.09961,12.928223 z"
           id="path608" />
        <path
           d="m 369.74446,-350.23386 h 1.40186 q 0.62305,0 1.71338,1.71338 v 178.65869 h 0.31152 q 0,-4.0498 13.86279,-9.81299 5.14014,0.93457 5.14014,4.67285 v 1.2461 q 0,3.89404 -5.60742,4.82861 -2.64795,0 -4.67285,-4.36133 -9.03418,5.45166 -9.03418,16.35498 v 0.93457 q 2.49219,2.49219 2.49219,4.20557 v 1.24609 q 0,1.55762 -1.71338,3.58252 h 3.11523 q 43.61328,0 57.63184,28.34864 3.42676,7.78808 3.42676,11.68212 v 0.77881 q 0,5.60742 -6.38624,5.60742 h -17.75683 q -1.71338,0 -4.67285,0.46729 -6.85352,0 -13.39551,-13.39551 -9.03418,-6.85351 -19.78174,-6.85351 -20.56055,0 -24.14307,10.28027 l -0.46728,3.11523 v 0.77881 q 0,13.862793 40.18652,20.249023 21.65088,4.361328 35.66944,12.460938 16.35498,11.526367 16.35498,30.996582 0,17.601074 -12.92823,32.7099606 -19.47021,17.2895513 -58.09912,17.2895513 -20.40478,0 -43.14599,-11.2148443 -13.55127,-7.1650386 -20.56055,-29.2832026 -0.46728,-2.959473 -0.46728,-4.672852 v -0.93457 q 0,-4.361328 6.0747,-5.140137 h 24.14307 q 5.45166,0 8.09961,6.853516 2.49219,8.255371 11.68213,13.395507 8.56689,4.361329 19.31445,4.361329 8.41113,0 18.06836,-5.295899 6.85351,-5.45166 6.85351,-13.707031 v -0.467285 q 0,-14.641602 -44.70361,-21.962403 -29.12744,-7.476562 -36.604,-15.108886 -10.74756,-10.747559 -10.74756,-25.700687 2.0249,-16.19921 6.07471,-22.89697 7.47656,-12.46093 28.81591,-19.31445 14.01856,-3.42676 21.49512,-3.42676 -1.71338,-1.86914 -1.71338,-3.58252 v -0.77881 q 0.77881,-4.36132 2.95948,-4.36132 v -192.83301 q 0,-0.77881 1.71337,-1.71338 z m -6.38623,218.68945 q 0,6.23047 7.78809,7.3208 6.38623,-1.40185 6.38623,-7.78808 -1.55762,-5.91895 -4.67285,-5.91895 v 2.0249 q 0,0.77881 -1.71338,1.86915 h -1.40186 q -0.62304,0 -1.71337,-1.86915 v -2.0249 h -0.46729 q -4.20557,2.33643 -4.20557,6.38623 z"
           id="path610" />
        <path
           d="m 548.09163,-350.23386 h 1.2461 q 0.62304,0 1.55761,1.55762 v 186.7583 h 0.31153 q 0,-2.33643 4.98437,-6.54199 1.09033,-4.67286 4.67285,-4.67286 h 0.31153 q 3.89404,0 4.67285,4.98438 -1.2461,4.20557 -4.36133,4.20557 h -1.09033 q -1.40186,0 -3.11524,-1.55762 -5.60742,6.38623 -5.60742,13.39551 v 0.7788 q 2.18067,2.33643 2.18067,3.89405 v 1.09033 q 0,2.64795 -2.95948,3.89404 v 1.09033 h 0.31153 q 11.21484,-3.42675 14.17431,-3.42675 3.11524,0 3.89405,4.20556 -8.09961,121.338379 -11.52637,157.319336 -2.64795,11.370605 -5.2959,15.264648 -9.3457,12.772461 -26.94678,18.06836 -14.48584,4.205566 -19.00293,4.205566 -6.38623,0 -10.43603,-22.896973 0,-5.45166 11.21484,-6.541992 11.05908,-2.959472 14.79736,-8.878418 2.02491,-4.828613 2.02491,-10.7475581 0,-5.45166044 -23.83155,-35.5136719 -41.74414,-55.451172 -55.45117,-74.609867 v -2.33642 q 0,-4.0498 16.04346,-7.3208 11.05908,-3.73828 13.08398,-3.73828 h 1.86914 q 4.20557,0 9.96875,10.28027 2.80372,3.73828 39.0962,56.22998 2.18066,3.115234 4.20556,3.115234 h 0.77881 q 2.64795,0 2.64795,-16.510742 1.55762,-69.158202 2.64795,-69.158202 0,-2.64795 11.52637,-5.45166 v -3.11523 q -2.02491,-1.86914 -2.02491,-3.42676 v -0.77881 q 0,-1.55762 2.02491,-3.73828 v -197.81738 q 0,-0.62305 1.40185,-1.55762 z m -5.60742,224.29687 q 0,5.45166 6.85352,6.38623 5.76318,-1.09033 5.76318,-6.85351 -1.55762,-5.2959 -4.20557,-5.2959 v 1.86914 q 0,0.62305 -1.55761,1.55762 h -1.2461 q -0.46728,0 -1.40185,-1.55762 v -1.86914 h -0.46729 q -3.73828,2.18066 -3.73828,5.76318 z"
           id="path612" />
      </g>
      <g
         clip-path="url(#clip6)"
         filter="url(#fx1)"
         transform="translate(411.72005,-102.91013)"
         id="g83">
        <g
           clip-path="url(#clip7)"
           id="g81">
          <path
             d="m 77.1021,-344.545 h 1.246 c 0.4154,0 0.9346,0.571 1.5577,1.713 v 146.105 c 1.0384,1.142 1.5576,2.233 1.5576,3.271 v 1.246 c 0,0.935 -0.5192,2.025 -1.5576,3.271 v 2.336 h 69.7812 c 5.4,0 8.1,2.441 8.1,7.321 0.311,1.973 0.467,4.725 0.467,8.256 v 11.682 c 0,5.192 -2.7,7.788 -8.1,7.788 h -31.619 c -10.904,0 -16.355,0.934 -16.355,2.804 -1.039,0 -1.558,4.569 -1.558,13.707 V -6.23047 c 0,6.749676 -1.246,10.12451 -3.7382,10.12451 0,0.51921 -1.6096,0.77881 -4.8286,0.77881 H 67.7563 c -6.0227,0 -9.0341,-2.44027 -9.0341,-7.3208 V -136.603 c 0,-2.181 -0.1039,-4.725 -0.3116,-7.632 l 0.3116,-0.935 c -0.9346,-4.05 -3.4787,-6.075 -7.6324,-6.075 -3.0114,-0.207 -6.9573,-0.311 -11.8378,-0.311 H 23.0527 c -3.7382,0 -8.6188,0.104 -14.64157,0.311 -4.56901,-0.519 -6.85351,-2.803 -6.85351,-6.853 v -19.938 c 0,-5.711 2.18066,-8.567 6.54199,-8.567 H 75.3887 v -1.557 c -2.0769,0 -3.271,-1.61 -3.5825,-4.829 0.5192,-2.7 1.4537,-4.05 2.8037,-4.05 0,-5.815 -2.1807,-10.955 -6.542,-15.42 -0.4154,1.038 -1.35,1.558 -2.8037,1.558 h -2.3365 c -2.1806,-1.143 -3.271,-2.648 -3.271,-4.517 v -0.779 c 0,-2.181 1.4538,-3.635 4.3614,-4.362 h 0.9345 c 2.4922,0 4.1018,1.714 4.8286,5.141 1.4538,0 3.2191,2.336 5.2959,7.009 h 0.3116 v -134.423 c 0,-0.415 0.5711,-0.986 1.7134,-1.713 z m -6.0748,173.83 c 0,3.946 2.4403,6.231 7.3208,6.854 4.0498,-0.831 6.0748,-3.219 6.0748,-7.165 -1.0385,-3.842 -2.5442,-5.764 -4.5171,-5.764 v 2.025 c 0,0.416 -0.5192,0.935 -1.5577,1.558 h -1.246 c -0.4154,0 -0.9865,-0.519 -1.7134,-1.558 v -2.025 h -0.3116 c -2.6998,1.558 -4.0498,3.583 -4.0498,6.075 z M 257.786,-344.856 h 1.09 c 0.312,0 0.779,0.467 1.402,1.401 v 188.005 h 0.467 c 0,-1.454 1.558,-3.583 4.673,-6.386 0.727,-2.908 2.233,-4.362 4.517,-4.362 h 0.312 c 2.492,0 3.997,1.61 4.517,4.829 -0.831,2.7 -2.181,4.05 -4.05,4.05 h -1.246 c -0.831,0 -1.766,-0.52 -2.804,-1.558 -3.738,4.154 -5.607,8.463 -5.607,12.928 v 0.779 c 1.453,1.454 2.18,2.7 2.18,3.738 v 1.091 c 0,1.661 -0.986,2.907 -2.959,3.738 l 5.919,-1.869 h 1.557 c 2.908,0 5.244,4.05 7.01,12.149 21.183,66.6663 31.775,100.8819 31.775,102.6472 v 0.7788 c 0,3.1153 -5.192,5.8151 -15.576,8.0996 -4.984,1.973 -8.671,2.9595 -11.059,2.9595 -1.662,-0.1038 -4.102,-2.8037 -7.321,-8.0996 -1.038,-0.5192 -1.765,-0.7788 -2.181,-0.7788 -1.869,1.7653 -4.621,5.6074 -8.255,11.52636 C 250.932,2.12874 236.914,7.78809 220.091,7.78809 h -1.557 c -11.838,0 -21.807,-6.64584 -29.907,-19.93749 -3.946,-7.1651 -11.941,-31.2043 -23.987,-72.1177 -3.427,-9.9687 -5.14,-15.7319 -5.14,-17.2899 0,-3.53 4.309,-6.126 12.928,-7.788 7.996,-2.907 13.188,-4.361 15.576,-4.361 3.116,0 6.439,7.269 9.969,21.8066 10.28,33.333 17.134,53.2705 20.561,59.8125 4.569,5.9189 9.865,8.8784 15.887,8.8784 h 1.558 c 8.619,0 15.888,-4.1017 21.807,-12.3052 1.973,-3.6344 2.959,-7.165 2.959,-10.5918 v -2.9594 c 0,-7.0612 -6.282,-29.4909 -18.847,-67.2891 l -2.648,-9.657 c 0,-3.531 3.583,-6.075 10.748,-7.633 l 6.23,-3.426 c -1.246,-1.246 -1.869,-2.337 -1.869,-3.271 v -0.779 c 0,-1.039 0.623,-2.285 1.869,-3.738 v -198.597 c 0,-0.311 0.519,-0.778 1.558,-1.401 z m -5.608,224.141 c 0,3.53 2.233,5.607 6.698,6.23 3.634,-0.831 5.452,-3.063 5.452,-6.698 -0.935,-3.426 -2.285,-5.14 -4.05,-5.14 v 1.869 c 0,0.416 -0.467,0.883 -1.402,1.402 h -1.09 c -0.416,0 -0.935,-0.467 -1.558,-1.402 v -1.869 h -0.311 c -2.493,1.35 -3.739,3.219 -3.739,5.608 z m 126.694,-224.453 h 1.09 c 0.415,0 0.934,0.571 1.558,1.713 v 147.818 c 1.142,1.143 1.713,2.181 1.713,3.116 v 1.246 c 0,0.934 -0.415,1.869 -1.246,2.803 v 0.468 c 11.63,2.699 17.445,5.97 17.445,9.813 v 0.467 c 0,0.934 -3.946,12.876 -11.838,35.825 -3.219,9.034 -4.828,15.005 -4.828,17.913 v 0.311 c 0.519,1.35 1.557,2.025 3.115,2.025 9.449,-2.7 16.77,-4.05 21.962,-4.05 h 3.115 c 7.166,0 15.784,2.544 25.857,7.633 11.111,6.957 18.951,17.445 23.52,31.4635 1.35,5.192 2.284,10.7475 2.804,16.6665 0,21.7028 -6.906,42.3672 -20.717,61.99315 -13.707,15.68002 -27.881,23.52005 -42.523,23.52005 -17.549,0 -32.917,-6.64586 -46.105,-19.93753 -4.05,-6.23047 -6.854,-9.55337 -8.411,-9.96877 -0.935,0 -3.064,2.3884 -6.386,7.16506 l -2.025,0.46729 h -1.558 C 317.45,-11.4744 308.467,-15.057 308.467,-17.4453 L 308,-19.4702 c 0,-1.6615 18.432,-57.2165 55.295,-166.6648 1.87,-3.946 3.998,-5.919 6.387,-5.919 0.727,0.311 2.025,0.467 3.894,0.467 0.415,-2.907 1.35,-4.361 2.803,-4.361 0,-5.504 -2.128,-10.592 -6.386,-15.265 -1.038,1.142 -2.077,1.713 -3.115,1.713 h -1.246 c -1.973,0 -3.427,-1.453 -4.361,-4.361 0.519,-3.53 2.128,-5.296 4.828,-5.296 h 0.312 c 2.284,0 4.153,1.869 5.607,5.608 2.285,1.557 3.894,3.686 4.829,6.386 h 0.311 v -136.292 c 0,-0.415 0.571,-0.986 1.714,-1.713 z m -6.075,174.92 c 0,3.843 2.388,6.127 7.165,6.854 3.946,-0.831 5.919,-3.219 5.919,-7.165 -0.935,-3.738 -2.389,-5.608 -4.361,-5.608 v 2.025 c 0,0.416 -0.52,0.935 -1.558,1.558 h -1.09 c -0.416,0 -0.987,-0.519 -1.714,-1.558 v -2.025 h -0.311 c -2.7,1.558 -4.05,3.531 -4.05,5.919 z m -14.33,117.7563 v 4.0498 c 0,14.3301 5.451,24.1431 16.355,29.439 0,1.0384 4.621,2.0768 13.863,3.1152 11.422,0 21.806,-8.6188 31.152,-25.8564 2.907,-6.9574 4.984,-15.4205 6.23,-25.3892 v -0.4673 c 0,-10.9033 -3.582,-20.0413 -10.747,-27.414 -5.504,-3.5306 -10.644,-5.6594 -15.421,-6.3864 h -4.361 c -13.707,0 -24.974,10.6438 -33.8,31.9313 -2.181,7.8919 -3.271,13.5512 -3.271,16.978 z"
             fill="#ff0066"
             transform="translate(201.308,414)"
             id="path79" />
        </g>
      </g>
      <g
         aria-label="Tub"
         transform="translate(610.19005,308.08987)"
         id="text85"
         style="font-size:319px;font-family:'Hanging Letters', 'Hanging Letters_MSFontService', sans-serif;fill:#ff0066">
        <path
           d="m 77.102051,-344.54492 h 1.246094 q 0.623046,0 1.557617,1.71338 v 146.10449 q 1.557617,1.71338 1.557617,3.271 v 1.24609 q 0,1.40185 -1.557617,3.271 v 2.33642 h 69.781248 q 8.09961,0 8.09961,7.3208 0.46729,2.95947 0.46729,8.25537 v 11.68213 q 0,7.78809 -8.09961,7.78809 h -31.61963 q -16.35498,0 -16.35498,2.80371 -1.55762,0 -1.55762,13.70703 V -6.2304687 q 0,10.1245117 -3.738281,10.1245117 0,0.7788086 -4.828613,0.7788086 H 67.756348 q -9.03418,0 -9.03418,-7.3208008 V -136.60303 q 0,-3.27099 -0.311523,-7.63232 l 0.311523,-0.93457 q -1.401856,-6.07471 -7.632324,-6.07471 -4.51709,-0.31152 -11.837891,-0.31152 H 23.052734 q -5.607422,0 -14.6416012,0.31152 -6.8535156,-0.77881 -6.8535156,-6.85351 v -19.9375 q 0,-8.5669 6.5419922,-8.5669 H 75.388672 v -1.55762 q -3.115235,0 -3.58252,-4.82861 0.778809,-4.0498 2.803711,-4.0498 0,-8.72266 -6.541992,-15.42041 -0.623047,1.55761 -2.803711,1.55761 h -2.336426 q -3.270996,-1.71338 -3.270996,-4.51709 v -0.77881 q 0,-3.27099 4.361328,-4.36132 h 0.934571 q 3.738281,0 4.828613,5.14013 2.180664,0 5.295898,7.00928 h 0.311524 v -134.42236 q 0,-0.62305 1.713379,-1.71338 z m -6.074707,173.83008 q 0,5.91894 7.320801,6.85351 6.074707,-1.24609 6.074707,-7.16504 -1.557618,-5.76318 -4.51709,-5.76318 v 2.0249 q 0,0.62305 -1.557617,1.55762 h -1.246094 q -0.623047,0 -1.713379,-1.55762 v -2.0249 h -0.311524 q -4.049804,2.33643 -4.049804,6.07471 z"
           id="path625" />
        <path
           d="m 257.94141,-344.85645 h 1.09033 q 0.46728,0 1.40185,1.40186 v 188.00439 h 0.46729 q 0,-2.18066 4.67285,-6.38623 1.09033,-4.36132 4.51709,-4.36132 h 0.31152 q 3.73828,0 4.51709,4.82861 -1.24609,4.0498 -4.0498,4.0498 h -1.24609 q -1.2461,0 -2.80372,-1.55761 -5.60742,6.23047 -5.60742,12.92822 v 0.77881 q 2.18067,2.18066 2.18067,3.73828 v 1.09033 q 0,2.49219 -2.95948,3.73828 l 5.91895,-1.86914 h 1.55762 q 4.36132,0 7.00927,12.14942 31.77539,99.99902 31.77539,102.646969 v 0.778808 q 0,4.672852 -15.57617,8.09961 -7.47656,2.959472 -11.05908,2.959472 -2.49219,-0.155761 -7.3208,-8.099609 -1.55762,-0.778809 -2.18066,-0.778809 -2.80372,2.64795 -8.25538,11.5263676 -16.82226,16.9780273 -42.05566,16.9780273 h -1.55762 q -17.75683,0 -29.90625,-19.9374999 -5.91894,-10.747559 -23.9873,-72.117676 -5.14014,-14.953125 -5.14014,-17.28955 0,-5.2959 12.92822,-7.78809 11.99366,-4.36132 15.57618,-4.36132 4.67285,0 9.96875,21.806636 15.42041,49.999512 20.56054,59.8125 6.85352,8.878418 15.8877,8.878418 h 1.55762 q 12.92822,0 21.80664,-12.305176 2.95947,-5.45166 2.95947,-10.591797 v -2.959472 q 0,-10.591797 -18.84717,-67.289059 l -2.64795,-9.65723 q 0,-5.2959 10.74756,-7.63232 l 6.23047,-3.42676 q -1.86914,-1.86914 -1.86914,-3.271 v -0.77881 q 0,-1.55761 1.86914,-3.73828 v -198.59619 q 0,-0.46728 1.55762,-1.40186 z m -5.60743,224.14112 q 0,5.2959 6.69776,6.23047 5.45166,-1.2461 5.45166,-6.69776 -1.40186,-5.14013 -4.04981,-5.14013 v 1.86914 q 0,0.62304 -1.40185,1.40185 h -1.09033 q -0.62305,0 -1.55762,-1.40185 v -1.86914 h -0.31152 q -3.73829,2.0249 -3.73829,5.60742 z"
           id="path627" />
        <path
           d="m 379.12402,-345.16797 h 1.09034 q 0.62304,0 1.55761,1.71338 v 147.81787 q 1.71338,1.71338 1.71338,3.11524 v 1.24609 q 0,1.40185 -1.24609,2.80371 v 0.46729 q 17.44531,4.0498 17.44531,9.81298 v 0.46729 q 0,1.40185 -11.83789,35.82519 -4.82861,13.55127 -4.82861,17.9126 v 0.31153 q 0.7788,2.0249 3.11523,2.0249 14.17432,-4.04981 21.9624,-4.04981 h 3.11524 q 10.74756,0 25.85644,7.63233 16.66651,10.43603 23.52002,31.463864 2.0249,7.788086 2.80371,16.666504 0,32.5542 -20.71631,61.9931643 -20.56054,23.5200197 -42.52294,23.5200197 -26.32374,0 -46.10547,-19.9375001 -6.07471,-9.3457029 -8.41114,-9.9687499 -1.40185,0 -6.38623,7.1650389 l -2.0249,0.4672852 H 335.6665 Q 308.71973,-13.862793 308.71973,-17.445312 l -0.46729,-2.024903 q 0,-2.492187 55.29541,-166.665035 2.80371,-5.91895 6.38623,-5.91895 1.09033,0.46729 3.89404,0.46729 0.62305,-4.36133 2.80372,-4.36133 0,-8.25537 -6.38623,-15.26465 -1.55762,1.71338 -3.11524,1.71338 h -1.24609 q -2.95948,0 -4.36133,-4.36133 0.77881,-5.2959 4.82861,-5.2959 h 0.31153 q 3.42675,0 5.60742,5.60742 3.42676,2.33643 4.82861,6.38623 h 0.31152 v -136.2915 q 0,-0.62305 1.71338,-1.71338 z m -6.0747,174.92041 q 0,5.76319 7.16504,6.85352 5.91894,-1.2461 5.91894,-7.16504 -1.40185,-5.60742 -4.36133,-5.60742 v 2.0249 q 0,0.62305 -1.55761,1.55762 h -1.09034 q -0.62304,0 -1.71338,-1.55762 v -2.0249 h -0.31152 q -4.0498,2.33642 -4.0498,5.91894 z m -14.33008,117.755861 v 4.049804 q 0,21.495118 16.35498,29.438965 0,1.557618 13.86279,3.115235 17.13379,0 31.15235,-25.856446 4.36132,-10.436035 6.23046,-25.38916 v -0.467285 q 0,-16.35498 -10.74755,-27.414062 -8.25538,-5.295902 -15.42041,-6.386232 h -4.36133 q -20.56055,0 -33.8003,31.931153 -3.27099,11.837891 -3.27099,16.978028 z"
           id="path629" />
      </g>
      <g
         clip-path="url(#clip8)"
         filter="url(#fx2)"
         transform="translate(875.72005,-102.91013)"
         id="g91">
        <g
           clip-path="url(#clip9)"
           id="g89">
          <path
             d="m 75.2329,-345.324 h 1.2461 c 0.4154,0 0.9865,0.571 1.7134,1.714 v 165.419 c 2.0768,-1.558 4.0498,-4.05 5.9189,-7.477 0.9346,-0.831 1.8692,-1.246 2.8037,-1.246 h 0.9346 c 3.0114,0.415 4.5171,1.921 4.5171,4.517 v 2.181 c -1.1423,2.18 -2.4922,3.271 -4.0498,3.271 H 86.915 c -0.9345,0 -2.1806,-0.571 -3.7382,-1.714 -3.323,4.362 -4.9844,7.892 -4.9844,10.592 v 5.919 c 1.1422,1.142 1.7134,2.233 1.7134,3.271 v 1.246 c 0,1.039 -0.5712,2.181 -1.7134,3.427 v 2.959 c 9.4495,0 20.3528,3.791 32.7096,11.371 11.111,9.346 18.848,18.691 23.209,28.037 2.596,3.531 5.244,10.955 7.944,22.274 v 0.9346 c 0,4.0498 -7.84,7.5285 -23.52,10.436 -42.2637,11.2149 -65.7837,17.653 -70.5604,19.3145 -1.4538,1.5576 -2.1807,3.271 -2.1807,5.1401 v 1.2461 c 3.1153,8.7227 7.9958,15.005 14.6416,18.8472 4.4652,2.2845 8.1516,3.4267 11.0591,3.4267 h 2.8037 c 16.5108,0 28.5567,-6.8535 36.1367,-20.5605 2.492,-6.4382 6.594,-9.6572 12.305,-9.6572 6.127,-1.973 11.579,-3.3749 16.355,-4.2056 3.635,0 5.452,1.8172 5.452,5.4516 0,8.3073 -3.635,18.3799 -10.903,30.2178 -8.619,11.6302 -20.821,19.72984 -36.6044,24.29885 C 88.5246,-1.55762 79.127,0 68.8467,0 58.151,-1.03841 49.8957,-2.85563 44.0806,-5.45166 28.6082,-12.6167 17.2896,-23.6758 10.1245,-38.6289 3.68636,-50.8822 0.467285,-64.6411 0.467285,-79.9058 v -1.2461 c 0,-0.623 -0.155762,-1.1422 -0.467285,-1.5576 1.24609,-14.0185 5.60742,-26.6355 13.084,-37.8505 9.138,-13.291 22.2739,-22.533 39.4077,-27.725 7.8919,-2.285 14.9012,-3.427 21.0278,-3.427 v -1.713 c -1.8691,0 -3.1152,-1.402 -3.7383,-4.206 v -0.779 c 0.6231,-3.115 1.8692,-4.673 3.7383,-4.673 V -343.61 c 0,-0.416 0.5712,-0.987 1.7134,-1.714 z m -6.3862,209.967 c 0,4.05 2.5441,6.438 7.6323,7.165 4.1536,-0.831 6.2305,-3.323 6.2305,-7.476 -1.0384,-3.946 -2.5441,-5.919 -4.5171,-5.919 v 2.025 c 0,0.519 -0.5711,1.09 -1.7134,1.713 h -1.2461 c -0.4154,0 -0.9865,-0.571 -1.7134,-1.713 v -2.025 h -0.4673 c -2.8037,1.557 -4.2055,3.634 -4.2055,6.23 z M 36.604,-90.8091 c 0,3.0114 1.2461,5.244 3.7383,6.6978 h 2.0249 c 3.5306,0 20.7682,-4.4652 51.7129,-13.3955 1.4537,-1.4538 2.1806,-2.7002 2.1806,-3.7382 v -1.246 c 0,-4.258 -4.3613,-9.45 -13.0839,-15.576 -4.1537,-2.285 -8.3593,-3.427 -12.6167,-3.427 -13.4994,0 -23.8316,5.919 -30.9966,17.757 -1.973,5.0879 -2.9595,9.3973 -2.9595,12.9279 z"
             fill="#ff0066"
             transform="translate(201.474,414)"
             id="path87" />
        </g>
      </g>
      <g
         aria-label="e"
         transform="translate(1074.36,308.08987)"
         id="text93"
         style="font-size:319px;font-family:'Hanging Letters', 'Hanging Letters_MSFontService', sans-serif;fill:#ff0066">
        <path
           d="m 75.23291,-345.32373 h 1.246094 q 0.623047,0 1.713379,1.71338 v 165.41894 q 3.115234,-2.33642 5.918945,-7.47656 1.401856,-1.24609 2.803711,-1.24609 h 0.93457 q 4.51709,0.62304 4.51709,4.51709 v 2.18066 q -1.713379,3.271 -4.049804,3.271 h -1.401856 q -1.401855,0 -3.738281,-1.71338 -4.984375,6.54199 -4.984375,10.5918 v 5.91894 q 1.713379,1.71338 1.713379,3.271 v 1.24609 q 0,1.55762 -1.713379,3.42676 v 2.95947 q 14.174316,0 32.709957,11.37061 16.66651,14.01855 23.2085,28.03711 3.89404,5.29589 7.94385,22.273922 v 0.93457 q 0,6.074707 -23.52002,10.436035 -63.395022,16.822266 -70.560061,19.314453 -2.180664,2.336426 -2.180664,5.140137 v 1.246094 q 4.672852,13.083984 14.641602,18.847168 6.697754,3.426758 11.059082,3.426758 h 2.803711 q 24.766113,0 36.13672,-20.560547 3.73828,-9.657227 12.30517,-9.657227 9.18995,-2.959473 16.35498,-4.205566 5.45166,0 5.45166,5.45166 0,12.460937 -10.90332,30.217773 Q 120.71533,-11.526367 97.039551,-4.6728516 84.26709,0 68.84668,0 52.803223,-1.5576172 44.080566,-5.4516602 20.87207,-16.199219 10.124512,-38.628906 0.46728516,-57.008789 0.46728516,-79.905762 v -1.246093 q 0,-0.934571 -0.46728516,-1.557618 1.8691406,-21.027827 13.083984,-37.850097 13.707032,-19.9375 39.407715,-27.72559 11.837891,-3.42675 21.027832,-3.42675 v -1.71338 q -2.803711,0 -3.738281,-4.20557 v -0.77881 q 0.93457,-4.67285 3.738281,-4.67285 v -180.52783 q 0,-0.62305 1.713379,-1.71338 z m -6.38623,209.9668 q 0,6.0747 7.632324,7.16504 6.230469,-1.2461 6.230469,-7.47657 -1.557618,-5.91894 -4.51709,-5.91894 v 2.0249 q 0,0.77881 -1.713379,1.71338 H 75.23291 q -0.623047,0 -1.713379,-1.71338 v -2.0249 h -0.467285 q -4.205566,2.33642 -4.205566,6.23047 z m -32.242676,44.547848 q 0,4.51709 3.738281,6.697754 h 2.024902 q 5.295899,0 51.712891,-13.395508 2.180664,-2.180664 2.180664,-3.738284 v -1.24609 q 0,-6.38623 -13.083984,-15.57617 -6.230469,-3.42676 -12.616699,-3.42676 -20.249024,0 -30.996582,17.75684 -2.959473,7.63232 -2.959473,12.928218 z"
           id="path640" />
      </g>
    </g>
  </g>
</svg>
