<?xml version="1.0" encoding="UTF-8" standalone="no"?>
<!-- Created with Inkscape (http://www.inkscape.org/) -->

<svg
   width="123.7232mm"
   height="93.814568mm"
   viewBox="0 0 123.72319 93.814568"
   version="1.1"
   id="svg1"
   inkscape:version="1.3.1 (91b66b0783, 2023-11-16)"
   sodipodi:docname="windowIcon.svg"
   xmlns:inkscape="http://www.inkscape.org/namespaces/inkscape"
   xmlns:sodipodi="http://sodipodi.sourceforge.net/DTD/sodipodi-0.dtd"
   xmlns="http://www.w3.org/2000/svg"
   xmlns:svg="http://www.w3.org/2000/svg">
  <sodipodi:namedview
     id="namedview1"
     pagecolor="#ffffff"
     bordercolor="#000000"
     borderopacity="0.25"
     inkscape:showpageshadow="2"
     inkscape:pageopacity="0.0"
     inkscape:pagecheckerboard="0"
     inkscape:deskcolor="#d1d1d1"
     inkscape:document-units="mm"
     inkscape:zoom="0.76702441"
     inkscape:cx="250.31798"
     inkscape:cy="352.66153"
     inkscape:window-width="2560"
     inkscape:window-height="1057"
     inkscape:window-x="-8"
     inkscape:window-y="-8"
     inkscape:window-maximized="1"
     inkscape:current-layer="g8" />
  <defs
     id="defs1">
    <filter
       id="fx0"
       x="-21"
       y="-29.700001"
       width="252.00002"
       height="356.40002"
       filterUnits="userSpaceOnUse"
       primitiveUnits="userSpaceOnUse">
      <feComponentTransfer
         color-interpolation-filters="sRGB"
         id="feComponentTransfer1">
        <feFuncR
           type="discrete"
           tableValues="0 0"
           id="feFuncR1" />
        <feFuncG
           type="discrete"
           tableValues="0 0"
           id="feFuncG1" />
        <feFuncB
           type="discrete"
           tableValues="0 0"
           id="feFuncB1" />
        <feFuncA
           type="linear"
           slope="0.4"
           intercept="0"
           id="feFuncA1" />
      </feComponentTransfer>
      <feGaussianBlur
         stdDeviation="2.23378 2.23378"
         id="feGaussianBlur1" />
    </filter>
    <filter
       id="fx1"
       x="-21"
       y="-29.700001"
       width="252.00002"
       height="356.40002"
       filterUnits="userSpaceOnUse"
       primitiveUnits="userSpaceOnUse">
      <feComponentTransfer
         color-interpolation-filters="sRGB"
         id="feComponentTransfer2">
        <feFuncR
           type="discrete"
           tableValues="0 0"
           id="feFuncR2" />
        <feFuncG
           type="discrete"
           tableValues="0 0"
           id="feFuncG2" />
        <feFuncB
           type="discrete"
           tableValues="0 0"
           id="feFuncB2" />
        <feFuncA
           type="linear"
           slope="0.4"
           intercept="0"
           id="feFuncA2" />
      </feComponentTransfer>
      <feGaussianBlur
         stdDeviation="2.23378 2.23378"
         id="feGaussianBlur2" />
    </filter>
    <clipPath
       id="clip2">
      <rect
         x="416"
         y="261"
         width="543"
         height="480"
         id="rect2" />
    </clipPath>
    <clipPath
       id="clip3">
      <rect
         x="129"
         y="40"
         width="137"
         height="268"
         id="rect3" />
    </clipPath>
    <clipPath
       id="clip4">
      <rect
         x="131"
         y="40"
         width="130"
         height="263"
         id="rect4" />
    </clipPath>
  </defs>
  <g
     inkscape:label="Livello 1"
     inkscape:groupmode="layer"
     id="layer1"
     transform="translate(0.34777682,-20.561396)">
    <g
       clip-path="url(#clip2)"
       transform="matrix(0.55711292,0,0,0.55711292,-274.48783,-127.54889)"
       id="g8">
      <path
         id="text5"
         style="fill:#ff0066"
         d="m 521.10024,265.85351 v 10.09017 h -0.32373 c -1.36686,-3.16537 -2.55379,-4.74826 -3.56096,-4.74826 -0.50358,-2.30208 -1.58262,-3.45337 -3.23724,-3.45337 h -0.53985 c -2.01432,0.50358 -3.02111,1.47472 -3.02111,2.91352 v 0.53985 c 0,1.22298 0.71874,2.22977 2.15754,3.02111 h 1.61862 c 1.00716,0 1.65458,-0.35936 1.94234,-1.07877 2.94955,3.09342 4.42454,6.58293 4.42454,10.46769 -0.93522,0 -1.58265,0.89889 -1.94235,2.69739 0.21582,2.15821 1.0434,3.23724 2.4822,3.23724 v 1.40249 c -3.09343,-0.57552 -5.21584,-0.86264 -6.36688,-0.86264 -1.65462,0 -3.02171,0.93455 -4.10081,2.80499 l -18.55986,120.10433 c 0,1.29492 0.64742,2.55411 1.94234,3.77709 3.597,1.0791 33.84772,5.8269 90.75214,14.24385 0.50358,0 1.07879,-0.17922 1.72621,-0.53892 1.87045,0 3.30978,-6.11581 4.31694,-18.34559 v -0.86264 c 0,-1.29492 -1.00772,-2.4462 -3.02204,-3.45337 -34.38725,-5.32353 -52.44385,-8.16568 -54.17041,-8.52534 -5.97102,0 -9.24472,-1.54631 -9.82024,-4.63974 v -0.53985 c 0,-2.66174 0.89984,-8.95589 2.69831,-18.88358 0,-5.46742 2.01452,-8.20162 6.04316,-8.20162 l 53.09164,8.20162 h 0.86264 c 3.16537,0 5.07197,-5.75551 5.71944,-17.26589 0,-1.72656 -0.64742,-2.98575 -1.94235,-3.77709 -4.02861,-1.15104 -21.1507,-3.88432 -51.36542,-8.20069 -4.60416,-0.50358 -6.9058,-2.15873 -6.9058,-4.96439 v -0.53892 c 0,-1.4388 0.82757,-7.26656 2.48219,-17.48202 0.50358,-3.30921 1.97764,-4.96345 4.42361,-4.96345 h 1.83474 c 38.27201,5.82711 57.80361,8.74054 58.59495,8.74054 h 0.53985 c 2.94954,0 4.85615,-6.3673 5.71943,-19.10063 0,-1.22298 -0.4682,-2.33768 -1.40342,-3.34484 -3.09342,-1.0791 -29.71107,-5.35959 -79.85313,-12.84136 h -0.21612 v -2.48219 c 0.71941,-0.79135 1.0797,-1.51008 1.0797,-2.15754 v -0.86357 c 0,-0.64746 -0.36029,-1.36713 -1.0797,-2.15847 v -17.88459 c -0.2464,-10e-4 -0.4928,2.6e-4 -0.73928,-0.004 -0.5143,-0.008 -1.02861,-0.02 -1.54256,-0.0408 -0.24657,-0.01 -0.49278,-0.0267 -0.73927,-0.038 z m -0.32373,31.88819 c 0.50358,1.29492 0.97086,1.94235 1.4025,1.94235 h 0.75597 c 0.79134,0 1.18637,-0.64743 1.18637,-1.94235 h 0.53985 c 1.58268,1.15104 2.37366,2.5172 2.37366,4.09989 -0.57548,2.9495 -1.94167,4.42453 -4.09988,4.42453 -2.66178,0 -4.28034,-1.47503 -4.85586,-4.42453 0,-1.65463 0.89889,-3.02079 2.69739,-4.09989 z" />
      <path
         id="text7"
         style="fill:#ff0066"
         d="m 658.71442,202.58637 c -0.0549,0.0306 -0.1669,0.0289 -0.16511,0.0918 5.9e-4,0.0197 0.006,0.0396 0.007,0.0594 0.0338,0.0321 0.0657,0.0661 0.0983,0.0992 0.0199,-0.0835 0.0395,-0.16696 0.0594,-0.25044 z m -0.15862,3.49881 c -0.0293,0.0267 -0.058,0.0543 -0.0918,0.0779 0.0342,0.0843 0.064,0.17041 0.0974,0.25508 -0.003,-0.11106 -2.4e-4,-0.22179 -0.006,-0.333 z m -1.81248,70.75918 v 9.78221 h -0.2152 c -1.4388,-3.23731 -2.66233,-4.85586 -3.66949,-4.85586 -0.50358,-2.37402 -1.61826,-3.56096 -3.34483,-3.56096 h -0.64745 c -2.01432,0.50358 -3.02204,1.51037 -3.02204,3.02111 v 0.53985 c 0,1.29493 0.75625,2.33737 2.26699,3.12871 h 1.61862 c 1.00717,0 1.65459,-0.35937 1.94235,-1.07877 3.02145,3.09342 4.53213,6.65424 4.53213,10.68289 -0.93522,0 -1.58264,0.93547 -1.94234,2.80592 0.21582,2.23011 1.04246,3.34483 2.48126,3.34483 v 1.0797 h -46.61716 c -3.02149,0 -4.53214,1.97792 -4.53214,5.93463 v 13.81253 c 0,2.80564 1.58289,4.38856 4.74826,4.74826 4.17253,-0.14392 7.55413,-0.21613 10.14397,-0.21613 h 11.22181 c 3.38115,0 6.11535,0.0722 8.20162,0.21613 2.8776,0 4.63971,1.40275 5.28718,4.20841 l -0.2152,0.64744 c 0.14392,2.01432 0.2152,3.77737 0.2152,5.28811 v 92.80208 c 0,3.38119 2.08675,5.07198 6.25928,5.07198 h 16.83364 c 2.23014,0 3.34577,-0.18013 3.34577,-0.53984 1.72654,0 2.58979,-2.33732 2.58979,-7.0134 v -89.24205 c 0,-6.3307 0.35937,-9.49652 1.07877,-9.49652 0,-1.29489 3.77665,-1.94234 11.33033,-1.94234 h 21.90655 c 3.74089,0 5.61091,-1.79777 5.61091,-5.39478 v -8.09402 c 0,-2.44597 -0.1079,-4.35165 -0.32372,-5.71851 0,-3.38116 -1.87002,-5.07198 -5.61091,-5.07198 h -48.34431 v -1.61862 c 0.7194,-0.86328 1.07877,-1.61863 1.07877,-2.26606 v -0.86358 c 0,-0.71941 -0.35937,-1.47475 -1.07877,-2.26606 v -17.73989 c -1.04348,-0.0369 -2.08728,-0.0759 -3.12964,-0.13542 z m -0.2152,31.68783 h 0.2152 v 1.4025 c 0.50358,0.71941 0.89954,1.07969 1.1873,1.07969 h 0.86357 c 0.7194,-0.43161 1.07877,-0.79192 1.07877,-1.07969 v -1.4025 c 1.36686,0 2.41024,1.3305 3.12964,3.99229 0,2.73372 -1.40275,4.38885 -4.20841,4.96438 -3.38119,-0.43165 -5.07198,-2.01454 -5.07198,-4.74826 0,-1.72657 0.9355,-3.12931 2.80591,-4.20841 z" />
    </g>
  </g>
</svg>
